<?xml version="1.0" encoding="UTF-8"?><svg xmlns="http://www.w3.org/2000/svg" xmlns:xlink="http://www.w3.org/1999/xlink" fill-opacity="1" color-rendering="auto" color-interpolation="auto" text-rendering="auto" stroke="black" stroke-linecap="square" width="830" stroke-miterlimit="10" shape-rendering="auto" stroke-opacity="1" fill="black" stroke-dasharray="none" font-weight="normal" stroke-width="1" height="702" font-family="'Dialog'" font-style="normal" stroke-linejoin="miter" font-size="12px" stroke-dashoffset="0" image-rendering="auto">
  <!--Generated by ySVG 2.6-->
  <defs id="genericDefs"/>
  <g>
    <defs id="defs1">
      <clipPath clipPathUnits="userSpaceOnUse" id="clipPath1">
        <path d="M0 0 L830 0 L830 702 L0 702 L0 0 Z"/>
      </clipPath>
      <clipPath clipPathUnits="userSpaceOnUse" id="clipPath2">
        <path d="M381 141 L1211 141 L1211 843 L381 843 L381 141 Z"/>
      </clipPath>
    </defs>
    <g fill="white" text-rendering="geometricPrecision" shape-rendering="geometricPrecision" transform="translate(-381,-141)" stroke="white">
      <rect x="381" width="830" height="702" y="141" clip-path="url(#clipPath2)" stroke="none"/>
    </g>
    <g fill="white" text-rendering="geometricPrecision" shape-rendering="geometricPrecision" transform="matrix(1,0,0,1,-381,-141)" stroke="white">
      <rect x="456" width="272" height="30" y="156" clip-path="url(#clipPath2)" stroke="none"/>
    </g>
    <g text-rendering="geometricPrecision" stroke-miterlimit="1.45" stroke-dasharray="6,2" shape-rendering="geometricPrecision" transform="matrix(1,0,0,1,-381,-141)" stroke-linecap="butt">
      <rect fill="none" x="456" width="272" height="30" y="156" clip-path="url(#clipPath2)"/>
      <text x="573.3291" y="175.7139" clip-path="url(#clipPath2)" font-family="sans-serif" stroke-dasharray="none" stroke="none" xml:space="preserve">.tsv file</text>
    </g>
    <g fill="rgb(255,204,153)" text-rendering="geometricPrecision" shape-rendering="geometricPrecision" transform="matrix(1,0,0,1,-381,-141)" stroke="rgb(255,204,153)">
      <rect x="456" width="272" height="35.3712" y="216" clip-path="url(#clipPath2)" stroke="none"/>
    </g>
    <g text-rendering="geometricPrecision" stroke-miterlimit="1.45" shape-rendering="geometricPrecision" transform="matrix(1,0,0,1,-381,-141)" stroke-linecap="butt">
      <rect fill="none" x="456" width="272" height="35.3712" y="216" clip-path="url(#clipPath2)"/>
      <text x="491.4531" xml:space="preserve" y="238.3995" clip-path="url(#clipPath2)" font-family="sans-serif" stroke="none">put all taxIDs into an array (+ repeats)</text>
    </g>
    <g fill="silver" text-rendering="geometricPrecision" shape-rendering="geometricPrecision" transform="matrix(1,0,0,1,-381,-141)" stroke="silver">
      <rect x="770" width="272" height="35.3712" y="216" clip-path="url(#clipPath2)" stroke="none"/>
      <rect x="770" y="216" clip-path="url(#clipPath2)" fill="white" width="1" height="35.3712" stroke="none"/>
      <rect x="771" y="216" clip-path="url(#clipPath2)" fill="white" width="270" height="1" stroke="none"/>
      <rect x="771" y="250.3712" clip-path="url(#clipPath2)" fill="rgb(134,134,134)" width="271" height="1" stroke="none"/>
      <rect x="1041" y="216" clip-path="url(#clipPath2)" fill="rgb(134,134,134)" width="1" height="34.3712" stroke="none"/>
    </g>
    <g text-rendering="geometricPrecision" stroke-miterlimit="1.45" shape-rendering="geometricPrecision" font-family="sans-serif" transform="matrix(1,0,0,1,-381,-141)" stroke-linecap="butt">
      <text x="778.6699" xml:space="preserve" y="238.3995" clip-path="url(#clipPath2)" stroke="none">let array = ['2', '6072' , '1236', '2', '1236', '33213']</text>
    </g>
    <g fill="rgb(255,204,153)" text-rendering="geometricPrecision" shape-rendering="geometricPrecision" transform="matrix(1,0,0,1,-381,-141)" stroke="rgb(255,204,153)">
      <rect x="456" width="272" height="118.3712" y="281.3712" clip-path="url(#clipPath2)" stroke="none"/>
    </g>
    <g text-rendering="geometricPrecision" stroke-miterlimit="1.45" shape-rendering="geometricPrecision" transform="matrix(1,0,0,1,-381,-141)" stroke-linecap="butt">
      <rect fill="none" x="456" width="272" height="118.3712" y="281.3712" clip-path="url(#clipPath2)"/>
      <text x="458.3418" xml:space="preserve" y="330.5695" clip-path="url(#clipPath2)" font-family="sans-serif" stroke="none">initialize an object after the model:</text>
      <text x="458.3418" xml:space="preserve" y="345.2706" clip-path="url(#clipPath2)" font-family="sans-serif" stroke="none">key: taxID (string)</text>
      <text x="458.3418" xml:space="preserve" y="359.9718" clip-path="url(#clipPath2)" font-family="sans-serif" stroke="none">value: [count, name="", [lineage (list of strings)]=[]]</text>
    </g>
    <g fill="rgb(255,204,153)" text-rendering="geometricPrecision" shape-rendering="geometricPrecision" transform="matrix(1,0,0,1,-381,-141)" stroke="rgb(255,204,153)">
      <rect x="456" width="272" height="100.7424" y="429.7424" clip-path="url(#clipPath2)" stroke="none"/>
    </g>
    <g text-rendering="geometricPrecision" stroke-miterlimit="1.45" shape-rendering="geometricPrecision" transform="matrix(1,0,0,1,-381,-141)" stroke-linecap="butt">
      <rect fill="none" x="456" width="272" height="100.7424" y="429.7424" clip-path="url(#clipPath2)"/>
      <text x="456.8037" xml:space="preserve" y="484.8274" clip-path="url(#clipPath2)" font-family="sans-serif" stroke="none">for key in obj: save its NCBI page's HTML as string</text>
    </g>
    <g fill="silver" text-rendering="geometricPrecision" shape-rendering="geometricPrecision" transform="matrix(1,0,0,1,-381,-141)" stroke="silver">
      <rect x="770" width="180.8542" height="118.3712" y="281.3712" clip-path="url(#clipPath2)" stroke="none"/>
      <rect x="770" y="281.3712" clip-path="url(#clipPath2)" fill="white" width="1" height="118.3712" stroke="none"/>
      <rect x="771" y="281.3712" clip-path="url(#clipPath2)" fill="white" width="178.8542" height="1" stroke="none"/>
      <rect x="771" y="398.7424" clip-path="url(#clipPath2)" fill="rgb(134,134,134)" width="179.8542" height="1" stroke="none"/>
      <rect x="949.8542" y="281.3712" clip-path="url(#clipPath2)" fill="rgb(134,134,134)" width="1" height="117.3712" stroke="none"/>
    </g>
    <g text-rendering="geometricPrecision" stroke-miterlimit="1.45" shape-rendering="geometricPrecision" font-family="sans-serif" transform="matrix(1,0,0,1,-381,-141)" stroke-linecap="butt">
      <text x="790.513" xml:space="preserve" y="308.5177" clip-path="url(#clipPath2)" stroke="none">let obj = {</text>
      <text x="790.513" xml:space="preserve" y="323.2189" clip-path="url(#clipPath2)" stroke="none">                '2': [2, "", []],</text>
      <text x="790.513" xml:space="preserve" y="337.92" clip-path="url(#clipPath2)" stroke="none">                '6072': [1, "", []],</text>
      <text x="790.513" xml:space="preserve" y="352.6212" clip-path="url(#clipPath2)" stroke="none">                '1236': [2, "", []],</text>
      <text x="790.513" xml:space="preserve" y="367.3224" clip-path="url(#clipPath2)" stroke="none">                '33213': [1, "", []]</text>
      <text x="790.513" xml:space="preserve" y="382.0236" clip-path="url(#clipPath2)" stroke="none">              }</text>
    </g>
    <g fill="rgb(255,204,153)" text-rendering="geometricPrecision" shape-rendering="geometricPrecision" transform="matrix(1,0,0,1,-381,-141)" stroke="rgb(255,204,153)">
      <rect x="456" width="272" height="118.3712" y="530.4847" clip-path="url(#clipPath2)" stroke="none"/>
    </g>
    <g text-rendering="geometricPrecision" stroke-miterlimit="1.45" shape-rendering="geometricPrecision" transform="matrix(1,0,0,1,-381,-141)" stroke-linecap="butt">
      <rect fill="none" x="456" width="272" height="118.3712" y="530.4847" clip-path="url(#clipPath2)"/>
      <text x="479.6143" xml:space="preserve" y="550.2806" clip-path="url(#clipPath2)" font-family="sans-serif" stroke="none">slice string so as to leave:</text>
      <text x="479.6143" xml:space="preserve" y="564.9818" clip-path="url(#clipPath2)" font-family="sans-serif" stroke="none">    * the name of the taxon (string), always </text>
      <text x="479.6143" xml:space="preserve" y="579.683" clip-path="url(#clipPath2)" font-family="sans-serif" stroke="none">located under: html -&gt; body -&gt; form -&gt; </text>
      <text x="479.6143" xml:space="preserve" y="594.3842" clip-path="url(#clipPath2)" font-family="sans-serif" stroke="none">ul compact -&gt; li -&gt; a -&gt; big -&gt; strong</text>
      <text x="479.6143" xml:space="preserve" y="609.0853" clip-path="url(#clipPath2)" font-family="sans-serif" stroke="none">    * the lineage (list of strings), all taxa in </text>
      <text x="479.6143" xml:space="preserve" y="623.7865" clip-path="url(#clipPath2)" font-family="sans-serif" stroke="none">lineage always located under:</text>
      <text x="479.6143" xml:space="preserve" y="638.4877" clip-path="url(#clipPath2)" font-family="sans-serif" stroke="none"> html -&gt; body -&gt; form -&gt; a[2,...,n]</text>
    </g>
    <g fill="silver" text-rendering="geometricPrecision" shape-rendering="geometricPrecision" transform="matrix(1,0,0,1,-381,-141)" stroke="silver">
      <rect x="770" width="180.8542" height="56.53" y="444.5787" clip-path="url(#clipPath2)" stroke="none"/>
      <rect x="770" y="444.5787" clip-path="url(#clipPath2)" fill="white" width="1" height="56.53" stroke="none"/>
      <rect x="771" y="444.5787" clip-path="url(#clipPath2)" fill="white" width="178.8542" height="1" stroke="none"/>
      <rect x="771" y="500.1087" clip-path="url(#clipPath2)" fill="rgb(134,134,134)" width="179.8542" height="1" stroke="none"/>
      <rect x="949.8542" y="444.5787" clip-path="url(#clipPath2)" fill="rgb(134,134,134)" width="1" height="55.53" stroke="none"/>
    </g>
    <g text-rendering="geometricPrecision" stroke-miterlimit="1.45" shape-rendering="geometricPrecision" font-family="sans-serif" transform="matrix(1,0,0,1,-381,-141)" stroke-linecap="butt">
      <text x="806.1107" xml:space="preserve" y="462.8564" clip-path="url(#clipPath2)" stroke="none">let htmlStr = "&lt;html&gt;</text>
      <text x="806.1107" xml:space="preserve" y="477.5576" clip-path="url(#clipPath2)" stroke="none">    ...</text>
      <text x="806.1107" xml:space="preserve" y="492.2587" clip-path="url(#clipPath2)" stroke="none">&lt;html&gt;"</text>
    </g>
    <g fill="silver" text-rendering="geometricPrecision" shape-rendering="geometricPrecision" transform="matrix(1,0,0,1,-381,-141)" stroke="silver">
      <rect x="770" width="272" height="87.4506" y="545.945" clip-path="url(#clipPath2)" stroke="none"/>
      <rect x="770" y="545.945" clip-path="url(#clipPath2)" fill="white" width="1" height="87.4506" stroke="none"/>
      <rect x="771" y="545.945" clip-path="url(#clipPath2)" fill="white" width="270" height="1" stroke="none"/>
      <rect x="771" y="632.3956" clip-path="url(#clipPath2)" fill="rgb(134,134,134)" width="271" height="1" stroke="none"/>
      <rect x="1041" y="545.945" clip-path="url(#clipPath2)" fill="rgb(134,134,134)" width="1" height="86.4506" stroke="none"/>
    </g>
    <g text-rendering="geometricPrecision" stroke-miterlimit="1.45" shape-rendering="geometricPrecision" font-family="sans-serif" transform="matrix(1,0,0,1,-381,-141)" stroke-linecap="butt">
      <text x="785.5781" xml:space="preserve" y="587.0336" clip-path="url(#clipPath2)" stroke="none">let taxName = "Gammaproteobacteria"</text>
      <text x="785.5781" xml:space="preserve" y="601.7347" clip-path="url(#clipPath2)" stroke="none">let LineageLst = ["Bacteria", "Proteobacteria"]</text>
    </g>
    <g fill="rgb(255,102,0)" text-rendering="geometricPrecision" shape-rendering="geometricPrecision" transform="matrix(1,0,0,1,-381,-141)" stroke="rgb(255,102,0)">
      <circle r="15" clip-path="url(#clipPath2)" cx="411" cy="589.6703" stroke="none"/>
    </g>
    <g text-rendering="geometricPrecision" stroke-miterlimit="1.45" shape-rendering="geometricPrecision" transform="matrix(1,0,0,1,-381,-141)" stroke-linecap="butt">
      <circle fill="none" r="15" clip-path="url(#clipPath2)" cx="411" cy="589.6703"/>
      <text x="400.9893" xml:space="preserve" y="594.3842" clip-path="url(#clipPath2)" font-family="sans-serif" stroke="none">???</text>
    </g>
    <g fill="rgb(255,102,0)" text-rendering="geometricPrecision" shape-rendering="geometricPrecision" transform="matrix(1,0,0,1,-381,-141)" stroke="rgb(255,102,0)">
      <circle r="15" clip-path="url(#clipPath2)" cx="411" cy="233.6856" stroke="none"/>
    </g>
    <g text-rendering="geometricPrecision" stroke-miterlimit="1.45" shape-rendering="geometricPrecision" transform="matrix(1,0,0,1,-381,-141)" stroke-linecap="butt">
      <circle fill="none" r="15" clip-path="url(#clipPath2)" cx="411" cy="233.6856"/>
      <text x="400.9893" xml:space="preserve" y="238.3995" clip-path="url(#clipPath2)" font-family="sans-serif" stroke="none">???</text>
    </g>
    <g fill="rgb(255,204,153)" text-rendering="geometricPrecision" shape-rendering="geometricPrecision" transform="matrix(1,0,0,1,-381,-141)" stroke="rgb(255,204,153)">
      <rect x="456" width="272" height="118.3712" y="648.8559" clip-path="url(#clipPath2)" stroke="none"/>
    </g>
    <g text-rendering="geometricPrecision" stroke-miterlimit="1.45" shape-rendering="geometricPrecision" transform="matrix(1,0,0,1,-381,-141)" stroke-linecap="butt">
      <rect fill="none" x="456" width="272" height="118.3712" y="648.8559" clip-path="url(#clipPath2)"/>
      <text x="531.959" xml:space="preserve" y="712.7554" clip-path="url(#clipPath2)" font-family="sans-serif" stroke="none">update obj accordingly</text>
    </g>
    <g fill="silver" text-rendering="geometricPrecision" shape-rendering="geometricPrecision" transform="matrix(1,0,0,1,-381,-141)" stroke="silver">
      <rect x="770" width="425.4896" height="118.3712" y="648.8559" clip-path="url(#clipPath2)" stroke="none"/>
      <rect x="770" y="648.8559" clip-path="url(#clipPath2)" fill="white" width="1" height="118.3712" stroke="none"/>
      <rect x="771" y="648.8559" clip-path="url(#clipPath2)" fill="white" width="423.4896" height="1" stroke="none"/>
      <rect x="771" y="766.2271" clip-path="url(#clipPath2)" fill="rgb(134,134,134)" width="424.4896" height="1" stroke="none"/>
      <rect x="1194.4896" y="648.8559" clip-path="url(#clipPath2)" fill="rgb(134,134,134)" width="1" height="117.3712" stroke="none"/>
    </g>
    <g text-rendering="geometricPrecision" stroke-miterlimit="1.45" shape-rendering="geometricPrecision" font-family="sans-serif" transform="matrix(1,0,0,1,-381,-141)" stroke-linecap="butt">
      <text x="781.9177" xml:space="preserve" y="676.0024" clip-path="url(#clipPath2)" stroke="none">let obj = {</text>
      <text x="781.9177" xml:space="preserve" y="690.7036" clip-path="url(#clipPath2)" stroke="none">                '2': [2, "", []],</text>
      <text x="781.9177" xml:space="preserve" y="705.4048" clip-path="url(#clipPath2)" stroke="none">                '6072': [1, "", []],</text>
      <text x="781.9177" xml:space="preserve" y="720.106" clip-path="url(#clipPath2)" stroke="none">                '1236': [2, "Gammaproteobacteria", ["Bacteria", "Proteobacteria"]],</text>
      <text x="781.9177" xml:space="preserve" y="734.8071" clip-path="url(#clipPath2)" stroke="none">                '33213': [1, "", []]</text>
      <text x="781.9177" xml:space="preserve" y="749.5083" clip-path="url(#clipPath2)" stroke="none">              }</text>
    </g>
    <g fill="rgb(255,204,153)" text-rendering="geometricPrecision" shape-rendering="geometricPrecision" transform="matrix(1,0,0,1,-381,-141)" stroke="rgb(255,204,153)">
      <rect x="456" width="272" height="30" y="797.2271" clip-path="url(#clipPath2)" stroke="none"/>
    </g>
    <g text-rendering="geometricPrecision" stroke-miterlimit="1.45" shape-rendering="geometricPrecision" transform="matrix(1,0,0,1,-381,-141)" stroke-linecap="butt">
      <rect fill="none" x="456" width="272" height="30" y="797.2271" clip-path="url(#clipPath2)"/>
      <text x="586.999" xml:space="preserve" y="816.9409" clip-path="url(#clipPath2)" font-family="sans-serif" stroke="none">...</text>
      <path fill="none" d="M592 186 L592 208" clip-path="url(#clipPath2)"/>
      <path d="M592 216 L597 204 L592 207 L587 204 Z" clip-path="url(#clipPath2)" stroke="none"/>
      <path fill="none" d="M728 233.6856 L770.0229 233.6856" clip-path="url(#clipPath2)"/>
      <path fill="none" d="M592 251.3712 L592 273.3712" clip-path="url(#clipPath2)"/>
      <path d="M592 281.3712 L597 269.3712 L592 272.3712 L587 269.3712 Z" clip-path="url(#clipPath2)" stroke="none"/>
      <path fill="none" d="M592 399.7424 L592 421.7424" clip-path="url(#clipPath2)"/>
      <path d="M592 429.7424 L597 417.7424 L592 420.7424 L587 417.7424 Z" clip-path="url(#clipPath2)" stroke="none"/>
      <path fill="none" d="M728 340.5568 L769.9977 340.5568" clip-path="url(#clipPath2)"/>
      <path fill="none" d="M769.9756 472.8437 L727.9864 472.8437" clip-path="url(#clipPath2)"/>
      <path fill="none" d="M728 589.6703 L770.0229 589.6703" clip-path="url(#clipPath2)"/>
      <path fill="none" d="M426 589.6703 L456 589.6703" clip-path="url(#clipPath2)"/>
      <path fill="none" d="M426 233.6856 L456 233.6856" clip-path="url(#clipPath2)"/>
      <path fill="none" d="M728 708.0415 L770.0117 708.0415" clip-path="url(#clipPath2)"/>
      <path fill="none" d="M592 767.2271 L592 789.2271" clip-path="url(#clipPath2)"/>
      <path d="M592 797.2271 L597 785.2271 L592 788.2271 L587 785.2271 Z" clip-path="url(#clipPath2)" stroke="none"/>
    </g>
  </g>
</svg>
