<?xml version="1.0" encoding="UTF-8"?><svg xmlns="http://www.w3.org/2000/svg" xmlns:xlink="http://www.w3.org/1999/xlink" fill-opacity="1" color-rendering="auto" color-interpolation="auto" text-rendering="auto" stroke="black" stroke-linecap="square" width="753" stroke-miterlimit="10" shape-rendering="auto" stroke-opacity="1" fill="black" stroke-dasharray="none" font-weight="normal" stroke-width="1" height="643" font-family="'Dialog'" font-style="normal" stroke-linejoin="miter" font-size="12px" stroke-dashoffset="0" image-rendering="auto">
  <!--Generated by ySVG 2.6-->
  <defs id="genericDefs"/>
  <g>
    <defs id="defs1">
      <clipPath clipPathUnits="userSpaceOnUse" id="clipPath1">
        <path d="M0 0 L753 0 L753 643 L0 643 L0 0 Z"/>
      </clipPath>
      <clipPath clipPathUnits="userSpaceOnUse" id="clipPath2">
        <path d="M47 -452 L800 -452 L800 191 L47 191 L47 -452 Z"/>
      </clipPath>
    </defs>
    <g fill="white" text-rendering="geometricPrecision" shape-rendering="geometricPrecision" transform="translate(-47,452)" stroke="white">
      <rect x="47" width="753" height="643" y="-452" clip-path="url(#clipPath2)" stroke="none"/>
    </g>
    <g fill="rgb(255,255,153)" text-rendering="geometricPrecision" shape-rendering="geometricPrecision" transform="matrix(1,0,0,1,-47,452)" stroke="rgb(255,255,153)">
      <rect x="464.8691" width="181.552" height="30" y="-242.3102" clip-path="url(#clipPath2)" stroke="none"/>
    </g>
    <g text-rendering="geometricPrecision" stroke-miterlimit="1.45" shape-rendering="geometricPrecision" transform="matrix(1,0,0,1,-47,452)" stroke-linecap="butt">
      <rect fill="none" x="464.8691" width="181.552" height="30" y="-242.3102" clip-path="url(#clipPath2)"/>
      <text x="494.6139" xml:space="preserve" y="-222.5963" clip-path="url(#clipPath2)" font-family="sans-serif" stroke="none">calculate_proportions()</text>
    </g>
    <g fill="rgb(204,255,204)" text-rendering="geometricPrecision" shape-rendering="geometricPrecision" transform="matrix(1,0,0,1,-47,452)" stroke="rgb(204,255,204)">
      <rect x="464.8691" width="181.552" height="30" y="-145.35" clip-path="url(#clipPath2)" stroke="none"/>
    </g>
    <g text-rendering="geometricPrecision" stroke-miterlimit="1.45" shape-rendering="geometricPrecision" transform="matrix(1,0,0,1,-47,452)" stroke-linecap="butt">
      <rect fill="none" x="464.8691" width="181.552" height="30" y="-145.35" clip-path="url(#clipPath2)"/>
      <text x="513.6305" xml:space="preserve" y="-125.6361" clip-path="url(#clipPath2)" font-family="sans-serif" stroke="none">draw_diagram()</text>
    </g>
    <g fill="rgb(204,255,204)" text-rendering="geometricPrecision" shape-rendering="geometricPrecision" transform="matrix(1,0,0,1,-47,452)" stroke="rgb(204,255,204)">
      <rect x="165.1883" width="181.552" height="30" y="-145.35" clip-path="url(#clipPath2)" stroke="none"/>
    </g>
    <g text-rendering="geometricPrecision" stroke-miterlimit="1.45" stroke-dasharray="6,2" shape-rendering="geometricPrecision" transform="matrix(1,0,0,1,-47,452)" stroke-linecap="butt">
      <rect fill="none" x="165.1883" width="181.552" height="30" y="-145.35" clip-path="url(#clipPath2)"/>
      <text x="230.2944" y="-125.6361" clip-path="url(#clipPath2)" font-family="sans-serif" stroke-dasharray="none" stroke="none" xml:space="preserve">HTML file</text>
    </g>
    <g fill="rgb(204,255,255)" text-rendering="geometricPrecision" shape-rendering="geometricPrecision" transform="matrix(1,0,0,1,-47,452)" stroke="rgb(204,255,255)">
      <rect x="464.8691" width="181.552" height="30" y="-48.3898" clip-path="url(#clipPath2)" stroke="none"/>
    </g>
    <g text-rendering="geometricPrecision" stroke-miterlimit="1.45" shape-rendering="geometricPrecision" transform="matrix(1,0,0,1,-47,452)" stroke-linecap="butt">
      <rect fill="none" x="464.8691" width="181.552" height="30" y="-48.3898" clip-path="url(#clipPath2)"/>
      <text x="477.941" xml:space="preserve" y="-28.676" clip-path="url(#clipPath2)" font-family="sans-serif" stroke="none">onmouseover() event listener</text>
    </g>
    <g fill="rgb(153,204,255)" text-rendering="geometricPrecision" shape-rendering="geometricPrecision" transform="matrix(1,0,0,1,-47,452)" stroke="rgb(153,204,255)">
      <rect x="336.9883" width="181.552" height="30" y="48.5703" clip-path="url(#clipPath2)" stroke="none"/>
    </g>
    <g text-rendering="geometricPrecision" stroke-miterlimit="1.45" shape-rendering="geometricPrecision" transform="matrix(1,0,0,1,-47,452)" stroke-linecap="butt">
      <rect fill="none" x="336.9883" width="181.552" height="30" y="48.5703" clip-path="url(#clipPath2)"/>
      <text x="361.401" xml:space="preserve" y="68.2842" clip-path="url(#clipPath2)" font-family="sans-serif" stroke="none">ondbclick() event listener</text>
    </g>
    <g fill="rgb(153,204,255)" text-rendering="geometricPrecision" shape-rendering="geometricPrecision" transform="matrix(1,0,0,1,-47,452)" stroke="rgb(153,204,255)">
      <rect x="603.2266" width="181.552" height="30" y="48.5703" clip-path="url(#clipPath2)" stroke="none"/>
    </g>
    <g text-rendering="geometricPrecision" stroke-miterlimit="1.45" shape-rendering="geometricPrecision" transform="matrix(1,0,0,1,-47,452)" stroke-linecap="butt">
      <rect fill="none" x="603.2266" width="181.552" height="30" y="48.5703" clip-path="url(#clipPath2)"/>
      <text x="621.2965" xml:space="preserve" y="68.2842" clip-path="url(#clipPath2)" font-family="sans-serif" stroke="none">onmouseup() event listener</text>
    </g>
    <g fill="rgb(204,153,255)" text-rendering="geometricPrecision" shape-rendering="geometricPrecision" transform="matrix(1,0,0,1,-47,452)" stroke="rgb(204,153,255)">
      <rect x="464.8691" width="181.552" height="30" y="145.5305" clip-path="url(#clipPath2)" stroke="none"/>
    </g>
    <g text-rendering="geometricPrecision" stroke-miterlimit="1.45" shape-rendering="geometricPrecision" transform="matrix(1,0,0,1,-47,452)" stroke-linecap="butt">
      <rect fill="none" x="464.8691" width="181.552" height="30" y="145.5305" clip-path="url(#clipPath2)"/>
      <text x="539.6344" xml:space="preserve" y="165.2443" clip-path="url(#clipPath2)" font-family="sans-serif" stroke="none">Krona</text>
    </g>
    <g fill="rgb(255,204,153)" text-rendering="geometricPrecision" shape-rendering="geometricPrecision" transform="matrix(1,0,0,1,-47,452)" stroke="rgb(255,204,153)">
      <rect x="464.8691" width="181.552" height="30" y="-339.2703" clip-path="url(#clipPath2)" stroke="none"/>
    </g>
    <g text-rendering="geometricPrecision" stroke-miterlimit="1.45" shape-rendering="geometricPrecision" transform="matrix(1,0,0,1,-47,452)" stroke-linecap="butt">
      <rect fill="none" x="464.8691" width="181.552" height="30" y="-339.2703" clip-path="url(#clipPath2)"/>
      <text x="496.9547" xml:space="preserve" y="-319.5565" clip-path="url(#clipPath2)" font-family="sans-serif" stroke="none">determine_hierarchy()</text>
      <rect x="464.8691" y="-436.2305" clip-path="url(#clipPath2)" fill="none" width="181.552" stroke-dasharray="6,2" height="30"/>
      <text x="528.2994" xml:space="preserve" y="-416.5166" clip-path="url(#clipPath2)" font-family="sans-serif" stroke="none">taXaminer</text>
      <rect x="165.1883" y="-339.2703" clip-path="url(#clipPath2)" fill="none" width="181.552" stroke-dasharray="6,2" height="30"/>
      <text x="187.5942" xml:space="preserve" y="-319.5565" clip-path="url(#clipPath2)" font-family="sans-serif" stroke="none">NCBI taxonomy database</text>
      <path fill="none" d="M555.6451 -212.3102 L555.6451 -153.35" clip-path="url(#clipPath2)"/>
      <path d="M555.6451 -145.35 L560.6451 -157.35 L555.6451 -154.35 L550.6451 -157.35 Z" clip-path="url(#clipPath2)" stroke="none"/>
      <text x="562.2267" xml:space="preserve" y="-174.1162" clip-path="url(#clipPath2)" font-family="sans-serif" stroke="none">nested objects</text>
      <path fill="none" d="M346.7403 -130.35 L456.8691 -130.35" clip-path="url(#clipPath2)"/>
      <path d="M464.8691 -130.35 L452.8691 -135.35 L455.8691 -130.35 L452.8691 -125.35 Z" clip-path="url(#clipPath2)" stroke="none"/>
      <text x="386.794" xml:space="preserve" y="-132.8367" clip-path="url(#clipPath2)" font-family="sans-serif" stroke="none">canvas</text>
      <path fill="none" d="M555.6451 -115.35 L555.6451 -56.3898" clip-path="url(#clipPath2)"/>
      <path d="M555.6451 -48.3898 L560.6451 -60.3898 L555.6451 -57.3898 L550.6451 -60.3898 Z" clip-path="url(#clipPath2)" stroke="none"/>
      <text x="562.2267" xml:space="preserve" y="-77.1561" clip-path="url(#clipPath2)" font-family="sans-serif" stroke="none">svg elements (inside canvas)</text>
      <path fill="none" d="M535.8616 -18.3898 L453.9226 43.7369" clip-path="url(#clipPath2)"/>
      <path d="M447.5478 48.5703 L460.1309 45.3044 L454.7195 43.1327 L454.0891 37.3359 Z" clip-path="url(#clipPath2)" stroke="none"/>
      <text x="416.1513" xml:space="preserve" y="12.6386" clip-path="url(#clipPath2)" font-family="sans-serif" stroke="none">svg elements</text>
      <path fill="none" d="M464.8691 -227.3102 L65.8643 -227.3102 L62.8643 -227.3102 L62.8643 58 L328.9892 62.0625" clip-path="url(#clipPath2)"/>
      <path d="M336.9883 62.1846 L325.066 57.002 L327.9893 62.0472 L324.9134 67.0008 Z" clip-path="url(#clipPath2)" stroke="none"/>
      <text x="138.457" xml:space="preserve" y="55.3777" clip-path="url(#clipPath2)" font-family="sans-serif" stroke="none">nested objects</text>
      <path fill="none" d="M577.0494 -18.3898 L666.0469 43.9791" clip-path="url(#clipPath2)"/>
      <path d="M672.5983 48.5703 L665.6407 37.5889 L665.228 43.4052 L659.9017 45.7781 Z" clip-path="url(#clipPath2)" stroke="none"/>
      <text x="630.5784" xml:space="preserve" y="11.9764" clip-path="url(#clipPath2)" font-family="sans-serif" stroke="none">svg elements</text>
      <path fill="none" d="M447.5478 78.5703 L529.4868 140.6971" clip-path="url(#clipPath2)"/>
      <path d="M535.8616 145.5305 L529.3203 134.2961 L528.69 140.0929 L523.2786 142.2646 Z" clip-path="url(#clipPath2)" stroke="none"/>
      <path fill="none" d="M672.5983 78.5703 L583.6008 140.9393" clip-path="url(#clipPath2)"/>
      <path d="M577.0494 145.5305 L589.746 142.7383 L584.4197 140.3654 L584.007 134.549 Z" clip-path="url(#clipPath2)" stroke="none"/>
      <path fill="none" d="M555.6451 -309.2703 L555.6451 -250.3102" clip-path="url(#clipPath2)"/>
      <path d="M555.6451 -242.3102 L560.6451 -254.3102 L555.6451 -251.3102 L550.6451 -254.3102 Z" clip-path="url(#clipPath2)" stroke="none"/>
      <text x="561.0143" xml:space="preserve" y="-271.0764" clip-path="url(#clipPath2)" font-family="sans-serif" stroke="none">nested objects</text>
      <path fill="none" d="M555.6451 -406.2305 L555.6451 -347.2703" clip-path="url(#clipPath2)"/>
      <path d="M555.6451 -339.2703 L560.6451 -351.2703 L555.6451 -348.2703 L550.6451 -351.2703 Z" clip-path="url(#clipPath2)" stroke="none"/>
      <text x="559.2643" xml:space="preserve" y="-368.0365" clip-path="url(#clipPath2)" font-family="sans-serif" stroke="none">.tsv file</text>
      <path fill="none" d="M495.8643 -339.2637 L495.8643 -379 L255.9643 -379 L255.9643 -347.2703" clip-path="url(#clipPath2)"/>
      <path d="M255.9643 -339.2703 L260.9643 -351.2703 L255.9643 -348.2703 L250.9643 -351.2703 Z" clip-path="url(#clipPath2)" stroke="none"/>
      <text x="357.2434" xml:space="preserve" y="-381.6367" clip-path="url(#clipPath2)" font-family="sans-serif" stroke="none">tax IDs</text>
      <path fill="none" d="M346.7403 -324.2703 L456.8691 -324.2703" clip-path="url(#clipPath2)"/>
      <path d="M464.8691 -324.2703 L452.8691 -329.2703 L455.8691 -324.2703 L452.8691 -319.2703 Z" clip-path="url(#clipPath2)" stroke="none"/>
      <text x="389.4717" xml:space="preserve" y="-329.1773" clip-path="url(#clipPath2)" font-family="sans-serif" stroke="none">HTML</text>
    </g>
  </g>
</svg>
